<svg xmlns="http://www.w3.org/2000/svg" width="256" height="256" viewBox="0 0 100 100"><path fill="#fff" d="M98.82 13.95L80.48 86.05L63.07 86.05L53.30 48.18Q52.76 46.15 51.45 39.82Q50.15 33.48 49.95 31.31L49.95 31.31Q49.65 33.97 48.47 39.87Q47.29 45.76 46.65 48.27L46.65 48.27L36.93 86.05L19.57 86.05L1.18 13.95L16.22 13.95L25.44 53.30Q27.86 64.20 28.94 72.19L28.94 72.19Q29.24 69.38 30.30 63.49Q31.36 57.59 32.30 54.34L32.30 54.34L42.80 13.95L57.25 13.95L67.75 54.34Q68.44 57.05 69.48 62.63Q70.52 68.20 71.06 72.19L71.06 72.19Q71.55 68.35 72.64 62.60Q73.72 56.85 74.61 53.30L74.61 53.30L83.78 13.95L98.82 13.95Z"></path></svg>